<?xml version="1.0" encoding="utf-8"?>
<!-- Generator: Adobe Illustrator 21.0.1, SVG Export Plug-In . SVG Version: 6.00 Build 0)  -->
<svg version="1.1" id="Layer_1" xmlns="http://www.w3.org/2000/svg" xmlns:xlink="http://www.w3.org/1999/xlink" x="0px" y="0px"
	 viewBox="0 0 512 512" style="enable-background:new 0 0 512 512;" xml:space="preserve">
<style type="text/css">
	.st0{fill:#FFFFFF;}
</style>
<path class="st0" d="M463,20.3L315.6,75.7l52.9,33.3C274,228,137.3,301.3,21.8,329.2l32.7,59.6c129.8-42.3,267.2-118.6,355.7-253.4
	l40.3,25.4L463,20.3z M470.7,137l-4.8,54.8l-51.3-32.4c-1.8,2.7-3.7,5.3-5.6,8V487h78V137H470.7L470.7,137z M320.1,265
	c-12.7,11-25.8,21.4-39.1,31.2V487h78V265H320.1z M196.4,349c-14.4,7.6-28.8,14.6-43.4,21.2V487h78V349H196.4L196.4,349z M25,393v94
	h78v-94h-5.7c-14.8,5.5-29.6,10.6-44.3,15.3l-7.1,2.2L36.3,393H25z"/>
</svg>
