<?xml version="1.0" encoding="utf-8"?>
<!-- Generator: Adobe Illustrator 21.0.1, SVG Export Plug-In . SVG Version: 6.00 Build 0)  -->
<svg version="1.1" id="Layer_1" xmlns="http://www.w3.org/2000/svg" xmlns:xlink="http://www.w3.org/1999/xlink" x="0px" y="0px"
	 viewBox="0 0 16 16" style="enable-background:new 0 0 16 16;" xml:space="preserve">
<style type="text/css">
	.st0{fill:#FFFFFF;}
</style>
<path class="st0" d="M14.1,4.4c0.5-0.2,1.1,0,1.3,0.5c1.7,4.1-0.3,8.8-4.4,10.4c-2.4,1-4.9,0.7-7-0.4c-0.5-0.3-0.6-0.9-0.4-1.4
	c0.3-0.5,0.9-0.6,1.4-0.4c1.5,0.9,3.5,1.1,5.2,0.3c3.1-1.3,4.5-4.8,3.3-7.8C13.3,5.2,13.6,4.6,14.1,4.4z M2.2,9.5
	c0.1,0.3,0.1,0.5,0.2,0.7c0.1,0.2,0.2,0.5,0.3,0.7c0.3,0.5,0.1,1.1-0.4,1.4c-0.5,0.3-1.1,0.1-1.4-0.4c-0.2-0.3-0.3-0.6-0.5-0.9
	c-0.1-0.3-0.2-0.7-0.3-1C0.1,9.5,0.4,9,1,8.8C1.5,8.7,2.1,9,2.2,9.5z M2.5,3.6C2.9,3.9,3.1,4.5,2.8,5C2.6,5.4,2.4,5.9,2.2,6.4
	C2.1,7,1.5,7.3,1,7.1C0.5,7,0.1,6.4,0.3,5.9C0.5,5.2,0.7,4.6,1.1,4C1.4,3.5,2,3.3,2.5,3.6z M10.1,0.3c0.7,0.2,1.3,0.5,1.9,0.8
	c0.5,0.3,0.6,0.9,0.4,1.4c-0.3,0.5-0.9,0.6-1.4,0.4c-0.5-0.3-0.9-0.5-1.4-0.6C9,2.1,8.7,1.5,8.9,1C9,0.5,9.6,0.1,10.1,0.3z M7.2,1
	C7.3,1.5,7,2.1,6.5,2.2C6.2,2.3,6,2.3,5.7,2.4C5.5,2.5,5.2,2.7,5,2.8C4.5,3.1,3.9,2.9,3.7,2.4S3.6,1.3,4,1.1C4.3,0.9,4.6,0.7,5,0.6
	c0.3-0.1,0.7-0.2,1-0.3C6.5,0.1,7,0.4,7.2,1z"/>
</svg>
