<?xml version="1.0" encoding="utf-8"?>
<!-- Generator: Adobe Illustrator 21.0.1, SVG Export Plug-In . SVG Version: 6.00 Build 0)  -->
<svg version="1.1" id="Layer_1" xmlns="http://www.w3.org/2000/svg" xmlns:xlink="http://www.w3.org/1999/xlink" x="0px" y="0px"
	 viewBox="0 0 488 488" style="enable-background:new 0 0 488 488;" xml:space="preserve">
<style type="text/css">
	.st0{fill:#FFFFFF;}
</style>
<g transform="translate(0 -540.36)">
	<g>
		<g>
			<path class="st0" d="M419.5,816.8c-5.5,0-10,4.5-10,10v181.6h-331V826.8c0-5.5-4.5-10-10-10s-10,4.5-10,10v191.6
				c0,5.5,4.5,10,10,10h351c5.5,0,10-4.5,10-10V826.8C429.5,821.3,425,816.8,419.5,816.8z"/>
			<path class="st0" d="M110.9,618.6l51.3,23.2v3.3v29.5V695c0,0.8,0.1,1.6,0.3,2.3c-20.5,36-12.1,81.1,21.3,108.3
				c17.2,14.3,38.9,21.5,60.5,21.5s43.3-7.2,60.5-21.5c16.9-14.1,28-33.4,31.1-54.4c2.8-18.6-0.8-37.3-10.2-53.6
				c0.2-0.8,0.3-1.7,0.3-2.6v-20.4v-29.5v-3.3l21.7-9.8v23v9.8c0,5.5,4.5,10,10,10s10-4.5,10-10V655v-30.3V623l9.6-4.3
				c3.6-1.6,5.9-5.2,5.9-9.1c-0.1-4-2.4-7.6-5.9-9.2l-129.1-59.1c-2.6-1.2-5.7-1.2-8.3,0l-129.1,59.1c-3.6,1.6-5.8,5.2-5.8,9.1
				C105,613.4,107.3,617,110.9,618.6z M291.8,790.2L291.8,790.2c-27.2,22.7-68.2,22.7-95.4,0l-0.1-0.1
				c-25.5-20.7-32.1-55.2-16.7-82.6l61.7,17.5c0.9,0.3,1.8,0.4,2.7,0.4s1.8-0.1,2.7-0.4l61.5-17.5
				C324,734.9,317.6,768.8,291.8,790.2z M182.1,687.5v-12.9v-23.8l57.8,26.1c1.3,0.6,2.7,0.9,4.1,0.9c1.4,0,2.8-0.3,4.1-0.9
				l57.8-26.1v23.8v12.9L244,705.1L182.1,687.5z M244,561.4l104.9,48L244,656.8l-104.9-47.4L244,561.4z"/>
		</g>
	</g>
</g>
</svg>
