<?xml version="1.0" encoding="utf-8"?>
<!-- Generator: Adobe Illustrator 21.0.1, SVG Export Plug-In . SVG Version: 6.00 Build 0)  -->
<svg version="1.1" id="Capa_1" xmlns="http://www.w3.org/2000/svg" xmlns:xlink="http://www.w3.org/1999/xlink" x="0px" y="0px"
	 viewBox="0 0 408.3 408.3" style="enable-background:new 0 0 408.3 408.3;" xml:space="preserve">
<style type="text/css">
	.st0{fill:#F76704;}
</style>
<g>
	<path class="st0" d="M364.1,0H44.2c-2.8,0-5,2.2-5,5v398.3c0,2.8,2.2,5,5,5h319.9c2.8,0,5-2.2,5-5V5C369.1,2.2,366.9,0,364.1,0z
		 M359.1,10v56.3H49.2V10H359.1z M49.2,398.3v-322h309.9v322H49.2z"/>
	<path class="st0" d="M178.5,56c9.2,0,16.7-7.5,16.7-16.7s-7.5-16.7-16.7-16.7s-16.7,7.5-16.7,16.7S169.3,56,178.5,56z M178.5,32.6
		c3.7,0,6.7,3,6.7,6.7s-3,6.7-6.7,6.7s-6.7-3-6.7-6.7S174.8,32.6,178.5,32.6z"/>
	<path class="st0" d="M229.8,56c9.2,0,16.7-7.5,16.7-16.7s-7.5-16.7-16.7-16.7s-16.7,7.5-16.7,16.7S220.6,56,229.8,56z M229.8,32.6
		c3.7,0,6.7,3,6.7,6.7s-3,6.7-6.7,6.7s-6.7-3-6.7-6.7S226.1,32.6,229.8,32.6z"/>
	<path class="st0" d="M118.3,96.7H72.4c-2.8,0-5,2.2-5,5s2.2,5,5,5h45.9c2.8,0,5-2.2,5-5S121.1,96.7,118.3,96.7z"/>
	<path class="st0" d="M118.3,113.4H72.4c-2.8,0-5,2.2-5,5s2.2,5,5,5h45.9c2.8,0,5-2.2,5-5S121.1,113.4,118.3,113.4z"/>
	<path class="st0" d="M118.3,130.1H72.4c-2.8,0-5,2.2-5,5s2.2,5,5,5h45.9c2.8,0,5-2.2,5-5S121.1,130.1,118.3,130.1z"/>
	<path class="st0" d="M118.3,146.8H72.4c-2.8,0-5,2.2-5,5s2.2,5,5,5h45.9c2.8,0,5-2.2,5-5S121.1,146.8,118.3,146.8z"/>
	<path class="st0" d="M145,106.7h45.9c2.8,0,5-2.2,5-5s-2.2-5-5-5H145c-2.8,0-5,2.2-5,5S142.2,106.7,145,106.7z"/>
	<path class="st0" d="M145,123.4h45.9c2.8,0,5-2.2,5-5s-2.2-5-5-5H145c-2.8,0-5,2.2-5,5S142.2,123.4,145,123.4z"/>
	<path class="st0" d="M145,140.1h45.9c2.8,0,5-2.2,5-5s-2.2-5-5-5H145c-2.8,0-5,2.2-5,5S142.2,140.1,145,140.1z"/>
	<path class="st0" d="M145,156.8h45.9c2.8,0,5-2.2,5-5s-2.2-5-5-5H145c-2.8,0-5,2.2-5,5S142.2,156.8,145,156.8z"/>
	<path class="st0" d="M263.4,96.7h-45.9c-2.8,0-5,2.2-5,5s2.2,5,5,5h45.9c2.8,0,5-2.2,5-5S266.1,96.7,263.4,96.7z"/>
	<path class="st0" d="M263.4,113.4h-45.9c-2.8,0-5,2.2-5,5s2.2,5,5,5h45.9c2.8,0,5-2.2,5-5S266.1,113.4,263.4,113.4z"/>
	<path class="st0" d="M263.4,130.1h-45.9c-2.8,0-5,2.2-5,5s2.2,5,5,5h45.9c2.8,0,5-2.2,5-5S266.1,130.1,263.4,130.1z"/>
	<path class="st0" d="M263.4,146.8h-45.9c-2.8,0-5,2.2-5,5s2.2,5,5,5h45.9c2.8,0,5-2.2,5-5S266.1,146.8,263.4,146.8z"/>
	<path class="st0" d="M335.9,96.7H290c-2.8,0-5,2.2-5,5s2.2,5,5,5h45.9c2.8,0,5-2.2,5-5S338.6,96.7,335.9,96.7z"/>
	<path class="st0" d="M335.9,113.4H290c-2.8,0-5,2.2-5,5s2.2,5,5,5h45.9c2.8,0,5-2.2,5-5S338.6,113.4,335.9,113.4z"/>
	<path class="st0" d="M335.9,130.1H290c-2.8,0-5,2.2-5,5s2.2,5,5,5h45.9c2.8,0,5-2.2,5-5S338.6,130.1,335.9,130.1z"/>
	<path class="st0" d="M335.9,146.8H290c-2.8,0-5,2.2-5,5s2.2,5,5,5h45.9c2.8,0,5-2.2,5-5S338.6,146.8,335.9,146.8z"/>
	<path class="st0" d="M118.3,190H72.4c-2.8,0-5,2.2-5,5s2.2,5,5,5h45.9c2.8,0,5-2.2,5-5S121.1,190,118.3,190z"/>
	<path class="st0" d="M118.3,206.7H72.4c-2.8,0-5,2.2-5,5s2.2,5,5,5h45.9c2.8,0,5-2.2,5-5S121.1,206.7,118.3,206.7z"/>
	<path class="st0" d="M118.3,223.4H72.4c-2.8,0-5,2.2-5,5s2.2,5,5,5h45.9c2.8,0,5-2.2,5-5S121.1,223.4,118.3,223.4z"/>
	<path class="st0" d="M118.3,240.1H72.4c-2.8,0-5,2.2-5,5s2.2,5,5,5h45.9c2.8,0,5-2.2,5-5S121.1,240.1,118.3,240.1z"/>
	<path class="st0" d="M145,200h45.9c2.8,0,5-2.2,5-5s-2.2-5-5-5H145c-2.8,0-5,2.2-5,5S142.2,200,145,200z"/>
	<path class="st0" d="M145,216.7h45.9c2.8,0,5-2.2,5-5s-2.2-5-5-5H145c-2.8,0-5,2.2-5,5S142.2,216.7,145,216.7z"/>
	<path class="st0" d="M145,233.4h45.9c2.8,0,5-2.2,5-5s-2.2-5-5-5H145c-2.8,0-5,2.2-5,5S142.2,233.4,145,233.4z"/>
	<path class="st0" d="M145,250.1h45.9c2.8,0,5-2.2,5-5s-2.2-5-5-5H145c-2.8,0-5,2.2-5,5S142.2,250.1,145,250.1z"/>
	<path class="st0" d="M263.4,190h-45.9c-2.8,0-5,2.2-5,5s2.2,5,5,5h45.9c2.8,0,5-2.2,5-5S266.1,190,263.4,190z"/>
	<path class="st0" d="M263.4,206.7h-45.9c-2.8,0-5,2.2-5,5s2.2,5,5,5h45.9c2.8,0,5-2.2,5-5S266.1,206.7,263.4,206.7z"/>
	<path class="st0" d="M263.4,223.4h-45.9c-2.8,0-5,2.2-5,5s2.2,5,5,5h45.9c2.8,0,5-2.2,5-5S266.1,223.4,263.4,223.4z"/>
	<path class="st0" d="M263.4,240.1h-45.9c-2.8,0-5,2.2-5,5s2.2,5,5,5h45.9c2.8,0,5-2.2,5-5S266.1,240.1,263.4,240.1z"/>
	<path class="st0" d="M335.9,190H290c-2.8,0-5,2.2-5,5s2.2,5,5,5h45.9c2.8,0,5-2.2,5-5S338.6,190,335.9,190z"/>
	<path class="st0" d="M335.9,206.7H290c-2.8,0-5,2.2-5,5s2.2,5,5,5h45.9c2.8,0,5-2.2,5-5S338.6,206.7,335.9,206.7z"/>
	<path class="st0" d="M335.9,223.4H290c-2.8,0-5,2.2-5,5s2.2,5,5,5h45.9c2.8,0,5-2.2,5-5S338.6,223.4,335.9,223.4z"/>
	<path class="st0" d="M335.9,240.1H290c-2.8,0-5,2.2-5,5s2.2,5,5,5h45.9c2.8,0,5-2.2,5-5S338.6,240.1,335.9,240.1z"/>
	<path class="st0" d="M118.3,283.3H72.4c-2.8,0-5,2.2-5,5s2.2,5,5,5h45.9c2.8,0,5-2.2,5-5S121.1,283.3,118.3,283.3z"/>
	<path class="st0" d="M118.3,300H72.4c-2.8,0-5,2.2-5,5s2.2,5,5,5h45.9c2.8,0,5-2.2,5-5S121.1,300,118.3,300z"/>
	<path class="st0" d="M118.3,316.7H72.4c-2.8,0-5,2.2-5,5s2.2,5,5,5h45.9c2.8,0,5-2.2,5-5S121.1,316.7,118.3,316.7z"/>
	<path class="st0" d="M118.3,333.5H72.4c-2.8,0-5,2.2-5,5s2.2,5,5,5h45.9c2.8,0,5-2.2,5-5S121.1,333.5,118.3,333.5z"/>
	<path class="st0" d="M145,293.3h45.9c2.8,0,5-2.2,5-5s-2.2-5-5-5H145c-2.8,0-5,2.2-5,5S142.2,293.3,145,293.3z"/>
	<path class="st0" d="M145,310h45.9c2.8,0,5-2.2,5-5s-2.2-5-5-5H145c-2.8,0-5,2.2-5,5S142.2,310,145,310z"/>
	<path class="st0" d="M145,326.7h45.9c2.8,0,5-2.2,5-5s-2.2-5-5-5H145c-2.8,0-5,2.2-5,5S142.2,326.7,145,326.7z"/>
	<path class="st0" d="M190.8,343.5c2.8,0,5-2.2,5-5s-2.2-5-5-5H145c-2.8,0-5,2.2-5,5s2.2,5,5,5H190.8z"/>
	<path class="st0" d="M263.4,283.3h-45.9c-2.8,0-5,2.2-5,5s2.2,5,5,5h45.9c2.8,0,5-2.2,5-5S266.1,283.3,263.4,283.3z"/>
	<path class="st0" d="M263.4,300h-45.9c-2.8,0-5,2.2-5,5s2.2,5,5,5h45.9c2.8,0,5-2.2,5-5S266.1,300,263.4,300z"/>
	<path class="st0" d="M263.4,316.7h-45.9c-2.8,0-5,2.2-5,5s2.2,5,5,5h45.9c2.8,0,5-2.2,5-5S266.1,316.7,263.4,316.7z"/>
	<path class="st0" d="M263.4,333.5h-45.9c-2.8,0-5,2.2-5,5s2.2,5,5,5h45.9c2.8,0,5-2.2,5-5S266.1,333.5,263.4,333.5z"/>
	<path class="st0" d="M335.9,283.3H290c-2.8,0-5,2.2-5,5s2.2,5,5,5h45.9c2.8,0,5-2.2,5-5S338.6,283.3,335.9,283.3z"/>
	<path class="st0" d="M335.9,300H290c-2.8,0-5,2.2-5,5s2.2,5,5,5h45.9c2.8,0,5-2.2,5-5S338.6,300,335.9,300z"/>
	<path class="st0" d="M335.9,316.7H290c-2.8,0-5,2.2-5,5s2.2,5,5,5h45.9c2.8,0,5-2.2,5-5S338.6,316.7,335.9,316.7z"/>
	<path class="st0" d="M335.9,333.5H290c-2.8,0-5,2.2-5,5s2.2,5,5,5h45.9c2.8,0,5-2.2,5-5S338.6,333.5,335.9,333.5z"/>
	<path class="st0" d="M61.3,26.7h55.2c2.8,0,5-2.2,5-5s-2.2-5-5-5H61.3c-2.8,0-5,2.2-5,5S58.5,26.7,61.3,26.7z"/>
	<path class="st0" d="M61.3,41h23.2c2.8,0,5-2.2,5-5s-2.2-5-5-5H61.3c-2.8,0-5,2.2-5,5S58.5,41,61.3,41z"/>
	<path class="st0" d="M291.9,26.7h55.2c2.8,0,5-2.2,5-5s-2.2-5-5-5h-55.2c-2.8,0-5,2.2-5,5S289.2,26.7,291.9,26.7z"/>
	<path class="st0" d="M347.1,31h-23.2c-2.8,0-5,2.2-5,5s2.2,5,5,5h23.2c2.8,0,5-2.2,5-5S349.8,31,347.1,31z"/>
	<path class="st0" d="M260.1,382H148.3c-2.8,0-5,2.2-5,5s2.2,5,5,5h111.8c2.8,0,5-2.2,5-5S262.8,382,260.1,382z"/>
	<path class="st0" d="M179.6,372.8c0,2.8,2.2,5,5,5h39.1c2.8,0,5-2.2,5-5s-2.2-5-5-5h-39.1C181.8,367.8,179.6,370,179.6,372.8z"/>
</g>
</svg>
